<svg xmlns="http://www.w3.org/2000/svg" width="198.53" height="35" viewBox="0 0 198.53 35"><rect class="svg__rect" x="0" y="0" width="97.73" height="35" fill="#000000" style="--darkreader-inline-fill: #000000;" data-darkreader-inline-fill=""/><rect class="svg__rect" x="95.73" y="0" width="102.8" height="35" fill="#000000" style="--darkreader-inline-fill: #000000;" data-darkreader-inline-fill=""/><path class="svg__text" d="M16.26 18.86L13.39 13.47L15.04 13.47L17.00 17.51L18.96 13.47L20.60 13.47L17.74 18.86L17.74 22L16.26 22L16.26 18.86ZM24.25 18.00L24.25 18.00L24.25 17.52Q24.25 16.28 24.69 15.32Q25.13 14.37 25.94 13.86Q26.74 13.35 27.79 13.35Q28.83 13.35 29.64 13.85Q30.44 14.35 30.88 15.29Q31.32 16.23 31.33 17.48L31.33 17.48L31.33 17.96Q31.33 19.21 30.89 20.16Q30.46 21.10 29.65 21.61Q28.85 22.12 27.80 22.12L27.80 22.12Q26.76 22.12 25.95 21.61Q25.14 21.10 24.70 20.17Q24.25 19.23 24.25 18.00ZM25.73 17.46L25.73 17.96Q25.73 19.36 26.28 20.13Q26.83 20.90 27.80 20.90L27.80 20.90Q28.78 20.90 29.31 20.15Q29.84 19.40 29.84 17.96L29.84 17.96L29.84 17.51Q29.84 16.09 29.31 15.34Q28.77 14.58 27.79 14.58L27.79 14.58Q26.83 14.58 26.28 15.33Q25.74 16.09 25.73 17.46L25.73 17.46ZM35.66 19.16L35.66 19.16L35.66 13.47L37.13 13.47L37.13 19.18Q37.13 20.03 37.57 20.48Q38.00 20.93 38.84 20.93L38.84 20.93Q40.56 20.93 40.56 19.13L40.56 19.13L40.56 13.47L42.03 13.47L42.03 19.17Q42.03 20.53 41.16 21.32Q40.29 22.12 38.84 22.12L38.84 22.12Q37.38 22.12 36.52 21.33Q35.66 20.55 35.66 19.16ZM48.28 14.66L45.65 14.66L45.65 13.47L52.41 13.47L52.41 14.66L49.75 14.66L49.75 22L48.28 22L48.28 14.66ZM56.04 19.16L56.04 19.16L56.04 13.47L57.51 13.47L57.51 19.18Q57.51 20.03 57.95 20.48Q58.38 20.93 59.22 20.93L59.22 20.93Q60.93 20.93 60.93 19.13L60.93 19.13L60.93 13.47L62.41 13.47L62.41 19.17Q62.41 20.53 61.54 21.32Q60.67 22.12 59.22 22.12L59.22 22.12Q57.76 22.12 56.90 21.33Q56.04 20.55 56.04 19.16ZM70.09 22L66.98 22L66.98 13.47L69.90 13.47Q71.35 13.47 72.11 14.05Q72.86 14.63 72.86 15.78L72.86 15.78Q72.86 16.36 72.55 16.83Q72.23 17.30 71.62 17.56L71.62 17.56Q72.31 17.75 72.69 18.26Q73.07 18.78 73.07 19.51L73.07 19.51Q73.07 20.71 72.30 21.36Q71.53 22 70.09 22L70.09 22ZM68.46 18.15L68.46 20.82L70.11 20.82Q70.81 20.82 71.20 20.47Q71.59 20.13 71.59 19.51L71.59 19.51Q71.59 18.18 70.23 18.15L70.23 18.15L68.46 18.15ZM68.46 14.66L68.46 17.06L69.92 17.06Q70.61 17.06 71.00 16.75Q71.39 16.43 71.39 15.86L71.39 15.86Q71.39 15.23 71.03 14.95Q70.67 14.66 69.90 14.66L69.90 14.66L68.46 14.66ZM83.12 22L77.54 22L77.54 13.47L83.08 13.47L83.08 14.66L79.02 14.66L79.02 17.02L82.53 17.02L82.53 18.19L79.02 18.19L79.02 20.82L83.12 20.82L83.12 22Z" fill="#FFFFFF" style="--darkreader-inline-fill: #181a1b;" data-darkreader-inline-fill=""/><path class="svg__text" d="M112.12 22L109.92 22L109.92 13.60L111.87 13.60L114.83 18.45L117.71 13.60L119.66 13.60L119.69 22L117.51 22L117.48 17.55L115.32 21.17L114.27 21.17L112.12 17.67L112.12 22ZM127.23 22L124.85 22L124.85 13.60L127.23 13.60L127.23 22ZM138.79 22L132.40 22L132.40 13.60L134.78 13.60L134.78 20.11L138.79 20.11L138.79 22ZM145.56 22L143.21 22L143.21 13.60L145.56 13.60L145.56 17.09L148.81 13.60L151.43 13.60L148.00 17.32L151.61 22L148.85 22L146.45 18.95L145.56 19.90L145.56 22ZM154.64 20.93L154.64 20.93L155.93 19.40Q156.60 20.27 157.37 20.27L157.37 20.27Q157.38 20.27 157.38 20.27L157.38 20.27Q157.90 20.27 158.17 19.96Q158.44 19.65 158.44 19.05L158.44 19.05L158.44 15.44L155.54 15.44L155.54 13.60L160.79 13.60L160.79 18.91Q160.79 20.54 159.97 21.36Q159.15 22.17 157.55 22.17L157.55 22.17Q156.63 22.17 155.87 21.85Q155.12 21.53 154.64 20.93ZM165.81 18.26L165.81 18.26L165.81 13.60L168.19 13.60L168.19 18.19Q168.19 20.20 169.78 20.20L169.78 20.20Q171.37 20.20 171.37 18.19L171.37 18.19L171.37 13.60L173.71 13.60L173.71 18.26Q173.71 20.13 172.67 21.15Q171.63 22.17 169.76 22.17L169.76 22.17Q167.88 22.17 166.85 21.15Q165.81 20.13 165.81 18.26ZM178.37 17.80L178.37 17.80Q178.37 16.54 178.96 15.54Q179.56 14.55 180.63 13.99Q181.70 13.43 183.04 13.43L183.04 13.43Q184.22 13.43 185.16 13.83Q186.10 14.22 186.72 14.97L186.72 14.97L185.21 16.33Q184.36 15.40 183.18 15.40L183.18 15.40Q183.17 15.40 183.17 15.40L183.17 15.40Q182.09 15.40 181.43 16.06Q180.76 16.71 180.76 17.80L180.76 17.80Q180.76 18.50 181.07 19.04Q181.37 19.59 181.91 19.89Q182.45 20.20 183.14 20.20L183.14 20.20Q183.83 20.20 184.43 19.93L184.43 19.93L184.43 17.62L186.52 17.62L186.52 21.10Q185.80 21.61 184.87 21.89Q183.93 22.17 183.00 22.17L183.00 22.17Q181.68 22.17 180.62 21.61Q179.56 21.05 178.96 20.05Q178.37 19.06 178.37 17.80Z" fill="#FFFFFF" x="108.73" style="--darkreader-inline-fill: #181a1b;" data-darkreader-inline-fill=""/></svg>